# xmcd CD database file
#
# Track frame offsets:
#	182
#	17220
#	40177
#	53320
#	71657
#	93007
#	110087
#	125370
#	139782
#	153232
#
# Disc length: 2477 seconds
#
# Revision: 3
# Processed by: cddbd v1.5PL3 Copyright (c) Steve Scherf et al.
# Submitted via: CDex 1.51
#
DISCID=7a09ab0a
DTITLE=Y and T - Earthshaker
DYEAR=1981
DGENRE=Hard Rock
TTITLE0=Hungry For Rock
TTITLE1=Dirty Girl
TTITLE2=Shake It Loose
TTITLE3=Squeeze
TTITLE4=Rescue Me
TTITLE5=Young And Tough
TTITLE6=Hurricane
TTITLE7=Let Me Go
TTITLE8=Knock You Out
TTITLE9=I Believe In You
EXTD=YEAR: 1981
EXTT0=
EXTT1=
EXTT2=
EXTT3=
EXTT4=
EXTT5=
EXTT6=
EXTT7=
EXTT8=
EXTT9=
PLAYORDER=
